%TF.GenerationSoftware,KiCad,Pcbnew,(5.1.10)-1*%
%TF.CreationDate,2021-11-02T23:54:37+01:00*%
%TF.ProjectId,Board0,426f6172-6430-42e6-9b69-6361645f7063,rev?*%
%TF.SameCoordinates,Original*%
%TF.FileFunction,Soldermask,Bot*%
%TF.FilePolarity,Negative*%
%FSLAX46Y46*%
G04 Gerber Fmt 4.6, Leading zero omitted, Abs format (unit mm)*
G04 Created by KiCad (PCBNEW (5.1.10)-1) date 2021-11-02 23:54:37*
%MOMM*%
%LPD*%
G01*
G04 APERTURE LIST*
%ADD10O,1.700000X1.700000*%
%ADD11R,1.700000X1.700000*%
%ADD12C,2.100000*%
G04 APERTURE END LIST*
D10*
%TO.C,J1*%
X133180000Y-140780000D03*
X130640000Y-140780000D03*
X133180000Y-138240000D03*
X130640000Y-138240000D03*
X133180000Y-135700000D03*
X130640000Y-135700000D03*
X133180000Y-133160000D03*
X130640000Y-133160000D03*
X133180000Y-130620000D03*
X130640000Y-130620000D03*
X133180000Y-128080000D03*
X130640000Y-128080000D03*
X133180000Y-125540000D03*
X130640000Y-125540000D03*
X133180000Y-123000000D03*
X130640000Y-123000000D03*
X133180000Y-120460000D03*
X130640000Y-120460000D03*
X133180000Y-117920000D03*
X130640000Y-117920000D03*
X133180000Y-115380000D03*
X130640000Y-115380000D03*
X133180000Y-112840000D03*
X130640000Y-112840000D03*
X133180000Y-110300000D03*
X130640000Y-110300000D03*
X133180000Y-107760000D03*
X130640000Y-107760000D03*
X133180000Y-105220000D03*
X130640000Y-105220000D03*
X133180000Y-102680000D03*
D11*
X130640000Y-102680000D03*
%TD*%
%TO.C,U1*%
G36*
G01*
X81500000Y-142250000D02*
X81500000Y-137750000D01*
G75*
G02*
X82000000Y-137250000I500000J0D01*
G01*
X83000000Y-137250000D01*
G75*
G02*
X83500000Y-137750000I0J-500000D01*
G01*
X83500000Y-142250000D01*
G75*
G02*
X83000000Y-142750000I-500000J0D01*
G01*
X82000000Y-142750000D01*
G75*
G02*
X81500000Y-142250000I0J500000D01*
G01*
G37*
G36*
G01*
X81500000Y-108750000D02*
X81500000Y-104250000D01*
G75*
G02*
X82000000Y-103750000I500000J0D01*
G01*
X83000000Y-103750000D01*
G75*
G02*
X83500000Y-104250000I0J-500000D01*
G01*
X83500000Y-108750000D01*
G75*
G02*
X83000000Y-109250000I-500000J0D01*
G01*
X82000000Y-109250000D01*
G75*
G02*
X81500000Y-108750000I0J500000D01*
G01*
G37*
D12*
X93000000Y-140000000D03*
X93000000Y-106500000D03*
%TD*%
M02*
