%TF.GenerationSoftware,KiCad,Pcbnew,(5.1.10)-1*%
%TF.CreationDate,2021-11-02T23:54:37+01:00*%
%TF.ProjectId,Board0,426f6172-6430-42e6-9b69-6361645f7063,rev?*%
%TF.SameCoordinates,Original*%
%TF.FileFunction,Legend,Top*%
%TF.FilePolarity,Positive*%
%FSLAX46Y46*%
G04 Gerber Fmt 4.6, Leading zero omitted, Abs format (unit mm)*
G04 Created by KiCad (PCBNEW (5.1.10)-1) date 2021-11-02 23:54:37*
%MOMM*%
%LPD*%
G01*
G04 APERTURE LIST*
%ADD10C,0.150000*%
%ADD11C,0.120000*%
G04 APERTURE END LIST*
D10*
X135214285Y-101547619D02*
X135261904Y-101500000D01*
X135357142Y-101452380D01*
X135595238Y-101452380D01*
X135690476Y-101500000D01*
X135738095Y-101547619D01*
X135785714Y-101642857D01*
X135785714Y-101738095D01*
X135738095Y-101880952D01*
X135166666Y-102452380D01*
X135785714Y-102452380D01*
X128785714Y-102452380D02*
X128214285Y-102452380D01*
X128500000Y-102452380D02*
X128500000Y-101452380D01*
X128404761Y-101595238D01*
X128309523Y-101690476D01*
X128214285Y-101738095D01*
X106904761Y-150000000D02*
X106714285Y-149904761D01*
X106428571Y-149904761D01*
X106142857Y-150000000D01*
X105952380Y-150190476D01*
X105857142Y-150380952D01*
X105761904Y-150761904D01*
X105761904Y-151047619D01*
X105857142Y-151428571D01*
X105952380Y-151619047D01*
X106142857Y-151809523D01*
X106428571Y-151904761D01*
X106619047Y-151904761D01*
X106904761Y-151809523D01*
X107000000Y-151714285D01*
X107000000Y-151047619D01*
X106619047Y-151047619D01*
X108523809Y-150857142D02*
X108809523Y-150952380D01*
X108904761Y-151047619D01*
X109000000Y-151238095D01*
X109000000Y-151523809D01*
X108904761Y-151714285D01*
X108809523Y-151809523D01*
X108619047Y-151904761D01*
X107857142Y-151904761D01*
X107857142Y-149904761D01*
X108523809Y-149904761D01*
X108714285Y-150000000D01*
X108809523Y-150095238D01*
X108904761Y-150285714D01*
X108904761Y-150476190D01*
X108809523Y-150666666D01*
X108714285Y-150761904D01*
X108523809Y-150857142D01*
X107857142Y-150857142D01*
X109761904Y-151333333D02*
X110714285Y-151333333D01*
X109571428Y-151904761D02*
X110238095Y-149904761D01*
X110904761Y-151904761D01*
X113000000Y-151809523D02*
X113285714Y-151904761D01*
X113761904Y-151904761D01*
X113952380Y-151809523D01*
X114047619Y-151714285D01*
X114142857Y-151523809D01*
X114142857Y-151333333D01*
X114047619Y-151142857D01*
X113952380Y-151047619D01*
X113761904Y-150952380D01*
X113380952Y-150857142D01*
X113190476Y-150761904D01*
X113095238Y-150666666D01*
X113000000Y-150476190D01*
X113000000Y-150285714D01*
X113095238Y-150095238D01*
X113190476Y-150000000D01*
X113380952Y-149904761D01*
X113857142Y-149904761D01*
X114142857Y-150000000D01*
X115952380Y-151904761D02*
X115000000Y-151904761D01*
X115000000Y-149904761D01*
X117000000Y-149904761D02*
X117380952Y-149904761D01*
X117571428Y-150000000D01*
X117761904Y-150190476D01*
X117857142Y-150571428D01*
X117857142Y-151238095D01*
X117761904Y-151619047D01*
X117571428Y-151809523D01*
X117380952Y-151904761D01*
X117000000Y-151904761D01*
X116809523Y-151809523D01*
X116619047Y-151619047D01*
X116523809Y-151238095D01*
X116523809Y-150571428D01*
X116619047Y-150190476D01*
X116809523Y-150000000D01*
X117000000Y-149904761D01*
X118428571Y-149904761D02*
X119571428Y-149904761D01*
X119000000Y-151904761D02*
X119000000Y-149904761D01*
X122142857Y-149904761D02*
X122333333Y-149904761D01*
X122523809Y-150000000D01*
X122619047Y-150095238D01*
X122714285Y-150285714D01*
X122809523Y-150666666D01*
X122809523Y-151142857D01*
X122714285Y-151523809D01*
X122619047Y-151714285D01*
X122523809Y-151809523D01*
X122333333Y-151904761D01*
X122142857Y-151904761D01*
X121952380Y-151809523D01*
X121857142Y-151714285D01*
X121761904Y-151523809D01*
X121666666Y-151142857D01*
X121666666Y-150666666D01*
X121761904Y-150285714D01*
X121857142Y-150095238D01*
X121952380Y-150000000D01*
X122142857Y-149904761D01*
X123476190Y-150571428D02*
X123952380Y-151904761D01*
X124428571Y-150571428D01*
X126238095Y-151904761D02*
X125095238Y-151904761D01*
X125666666Y-151904761D02*
X125666666Y-149904761D01*
X125476190Y-150190476D01*
X125285714Y-150380952D01*
X125095238Y-150476190D01*
D11*
%TO.C,J1*%
X129310000Y-101350000D02*
X130640000Y-101350000D01*
X129310000Y-102680000D02*
X129310000Y-101350000D01*
X131910000Y-101350000D02*
X134510000Y-101350000D01*
X131910000Y-103950000D02*
X131910000Y-101350000D01*
X129310000Y-103950000D02*
X131910000Y-103950000D01*
X134510000Y-101350000D02*
X134510000Y-142110000D01*
X129310000Y-103950000D02*
X129310000Y-142110000D01*
X129310000Y-142110000D02*
X134510000Y-142110000D01*
%TO.C,U1*%
X81000000Y-106500000D02*
X81000000Y-104000000D01*
X99000000Y-151500000D02*
X99000000Y-100000000D01*
X81000000Y-151500000D02*
X99000000Y-151500000D01*
X81000000Y-146500000D02*
X81000000Y-151500000D01*
X81000000Y-95000000D02*
X81000000Y-146500000D01*
X99000000Y-95000000D02*
X81000000Y-95000000D01*
X99000000Y-95000000D02*
X99000000Y-100000000D01*
%TO.C,J1*%
D10*
X131576666Y-99802380D02*
X131576666Y-100516666D01*
X131529047Y-100659523D01*
X131433809Y-100754761D01*
X131290952Y-100802380D01*
X131195714Y-100802380D01*
X132576666Y-100802380D02*
X132005238Y-100802380D01*
X132290952Y-100802380D02*
X132290952Y-99802380D01*
X132195714Y-99945238D01*
X132100476Y-100040476D01*
X132005238Y-100088095D01*
%TO.C,U1*%
X82738095Y-152952380D02*
X82738095Y-153761904D01*
X82785714Y-153857142D01*
X82833333Y-153904761D01*
X82928571Y-153952380D01*
X83119047Y-153952380D01*
X83214285Y-153904761D01*
X83261904Y-153857142D01*
X83309523Y-153761904D01*
X83309523Y-152952380D01*
X84309523Y-153952380D02*
X83738095Y-153952380D01*
X84023809Y-153952380D02*
X84023809Y-152952380D01*
X83928571Y-153095238D01*
X83833333Y-153190476D01*
X83738095Y-153238095D01*
%TD*%
M02*
