%TF.GenerationSoftware,KiCad,Pcbnew,(5.1.10)-1*%
%TF.CreationDate,2021-11-02T23:54:37+01:00*%
%TF.ProjectId,Board0,426f6172-6430-42e6-9b69-6361645f7063,rev?*%
%TF.SameCoordinates,Original*%
%TF.FileFunction,Other,Fab,Top*%
%FSLAX46Y46*%
G04 Gerber Fmt 4.6, Leading zero omitted, Abs format (unit mm)*
G04 Created by KiCad (PCBNEW (5.1.10)-1) date 2021-11-02 23:54:37*
%MOMM*%
%LPD*%
G01*
G04 APERTURE LIST*
%ADD10C,0.100000*%
%ADD11C,0.150000*%
G04 APERTURE END LIST*
D10*
%TO.C,J1*%
X129370000Y-102680000D02*
X130640000Y-101410000D01*
X129370000Y-142050000D02*
X129370000Y-102680000D01*
X134450000Y-142050000D02*
X129370000Y-142050000D01*
X134450000Y-101410000D02*
X134450000Y-142050000D01*
X130640000Y-101410000D02*
X134450000Y-101410000D01*
%TD*%
%TO.C,J1*%
D11*
X124071428Y-145857142D02*
X124023809Y-145904761D01*
X123880952Y-145952380D01*
X123785714Y-145952380D01*
X123642857Y-145904761D01*
X123547619Y-145809523D01*
X123500000Y-145714285D01*
X123452380Y-145523809D01*
X123452380Y-145380952D01*
X123500000Y-145190476D01*
X123547619Y-145095238D01*
X123642857Y-145000000D01*
X123785714Y-144952380D01*
X123880952Y-144952380D01*
X124023809Y-145000000D01*
X124071428Y-145047619D01*
X124642857Y-145952380D02*
X124547619Y-145904761D01*
X124500000Y-145857142D01*
X124452380Y-145761904D01*
X124452380Y-145476190D01*
X124500000Y-145380952D01*
X124547619Y-145333333D01*
X124642857Y-145285714D01*
X124785714Y-145285714D01*
X124880952Y-145333333D01*
X124928571Y-145380952D01*
X124976190Y-145476190D01*
X124976190Y-145761904D01*
X124928571Y-145857142D01*
X124880952Y-145904761D01*
X124785714Y-145952380D01*
X124642857Y-145952380D01*
X125404761Y-145285714D02*
X125404761Y-145952380D01*
X125404761Y-145380952D02*
X125452380Y-145333333D01*
X125547619Y-145285714D01*
X125690476Y-145285714D01*
X125785714Y-145333333D01*
X125833333Y-145428571D01*
X125833333Y-145952380D01*
X126309523Y-145285714D02*
X126309523Y-145952380D01*
X126309523Y-145380952D02*
X126357142Y-145333333D01*
X126452380Y-145285714D01*
X126595238Y-145285714D01*
X126690476Y-145333333D01*
X126738095Y-145428571D01*
X126738095Y-145952380D01*
X126976190Y-146047619D02*
X127738095Y-146047619D01*
X128166666Y-144952380D02*
X128261904Y-144952380D01*
X128357142Y-145000000D01*
X128404761Y-145047619D01*
X128452380Y-145142857D01*
X128500000Y-145333333D01*
X128500000Y-145571428D01*
X128452380Y-145761904D01*
X128404761Y-145857142D01*
X128357142Y-145904761D01*
X128261904Y-145952380D01*
X128166666Y-145952380D01*
X128071428Y-145904761D01*
X128023809Y-145857142D01*
X127976190Y-145761904D01*
X127928571Y-145571428D01*
X127928571Y-145333333D01*
X127976190Y-145142857D01*
X128023809Y-145047619D01*
X128071428Y-145000000D01*
X128166666Y-144952380D01*
X128880952Y-145047619D02*
X128928571Y-145000000D01*
X129023809Y-144952380D01*
X129261904Y-144952380D01*
X129357142Y-145000000D01*
X129404761Y-145047619D01*
X129452380Y-145142857D01*
X129452380Y-145238095D01*
X129404761Y-145380952D01*
X128833333Y-145952380D01*
X129452380Y-145952380D01*
X129785714Y-145952380D02*
X130309523Y-145285714D01*
X129785714Y-145285714D02*
X130309523Y-145952380D01*
X131214285Y-145952380D02*
X130642857Y-145952380D01*
X130928571Y-145952380D02*
X130928571Y-144952380D01*
X130833333Y-145095238D01*
X130738095Y-145190476D01*
X130642857Y-145238095D01*
X132071428Y-144952380D02*
X131880952Y-144952380D01*
X131785714Y-145000000D01*
X131738095Y-145047619D01*
X131642857Y-145190476D01*
X131595238Y-145380952D01*
X131595238Y-145761904D01*
X131642857Y-145857142D01*
X131690476Y-145904761D01*
X131785714Y-145952380D01*
X131976190Y-145952380D01*
X132071428Y-145904761D01*
X132119047Y-145857142D01*
X132166666Y-145761904D01*
X132166666Y-145523809D01*
X132119047Y-145428571D01*
X132071428Y-145380952D01*
X131976190Y-145333333D01*
X131785714Y-145333333D01*
X131690476Y-145380952D01*
X131642857Y-145428571D01*
X131595238Y-145523809D01*
X132357142Y-146047619D02*
X133119047Y-146047619D01*
X133214285Y-144952380D02*
X133785714Y-144952380D01*
X133500000Y-145952380D02*
X133500000Y-144952380D01*
X134261904Y-145952380D02*
X134166666Y-145904761D01*
X134119047Y-145857142D01*
X134071428Y-145761904D01*
X134071428Y-145476190D01*
X134119047Y-145380952D01*
X134166666Y-145333333D01*
X134261904Y-145285714D01*
X134404761Y-145285714D01*
X134500000Y-145333333D01*
X134547619Y-145380952D01*
X134595238Y-145476190D01*
X134595238Y-145761904D01*
X134547619Y-145857142D01*
X134500000Y-145904761D01*
X134404761Y-145952380D01*
X134261904Y-145952380D01*
X135023809Y-145285714D02*
X135023809Y-146285714D01*
X135023809Y-145333333D02*
X135119047Y-145285714D01*
X135309523Y-145285714D01*
X135404761Y-145333333D01*
X135452380Y-145380952D01*
X135500000Y-145476190D01*
X135500000Y-145761904D01*
X135452380Y-145857142D01*
X135404761Y-145904761D01*
X135309523Y-145952380D01*
X135119047Y-145952380D01*
X135023809Y-145904761D01*
X135690476Y-146047619D02*
X136452380Y-146047619D01*
X137023809Y-145428571D02*
X137166666Y-145476190D01*
X137214285Y-145523809D01*
X137261904Y-145619047D01*
X137261904Y-145761904D01*
X137214285Y-145857142D01*
X137166666Y-145904761D01*
X137071428Y-145952380D01*
X136690476Y-145952380D01*
X136690476Y-144952380D01*
X137023809Y-144952380D01*
X137119047Y-145000000D01*
X137166666Y-145047619D01*
X137214285Y-145142857D01*
X137214285Y-145238095D01*
X137166666Y-145333333D01*
X137119047Y-145380952D01*
X137023809Y-145428571D01*
X136690476Y-145428571D01*
X137833333Y-145952380D02*
X137738095Y-145904761D01*
X137690476Y-145857142D01*
X137642857Y-145761904D01*
X137642857Y-145476190D01*
X137690476Y-145380952D01*
X137738095Y-145333333D01*
X137833333Y-145285714D01*
X137976190Y-145285714D01*
X138071428Y-145333333D01*
X138119047Y-145380952D01*
X138166666Y-145476190D01*
X138166666Y-145761904D01*
X138119047Y-145857142D01*
X138071428Y-145904761D01*
X137976190Y-145952380D01*
X137833333Y-145952380D01*
X138452380Y-145285714D02*
X138833333Y-145285714D01*
X138595238Y-144952380D02*
X138595238Y-145809523D01*
X138642857Y-145904761D01*
X138738095Y-145952380D01*
X138833333Y-145952380D01*
X139023809Y-145285714D02*
X139404761Y-145285714D01*
X139166666Y-144952380D02*
X139166666Y-145809523D01*
X139214285Y-145904761D01*
X139309523Y-145952380D01*
X139404761Y-145952380D01*
X139880952Y-145952380D02*
X139785714Y-145904761D01*
X139738095Y-145857142D01*
X139690476Y-145761904D01*
X139690476Y-145476190D01*
X139738095Y-145380952D01*
X139785714Y-145333333D01*
X139880952Y-145285714D01*
X140023809Y-145285714D01*
X140119047Y-145333333D01*
X140166666Y-145380952D01*
X140214285Y-145476190D01*
X140214285Y-145761904D01*
X140166666Y-145857142D01*
X140119047Y-145904761D01*
X140023809Y-145952380D01*
X139880952Y-145952380D01*
X140642857Y-145952380D02*
X140642857Y-145285714D01*
X140642857Y-145380952D02*
X140690476Y-145333333D01*
X140785714Y-145285714D01*
X140928571Y-145285714D01*
X141023809Y-145333333D01*
X141071428Y-145428571D01*
X141071428Y-145952380D01*
X141071428Y-145428571D02*
X141119047Y-145333333D01*
X141214285Y-145285714D01*
X141357142Y-145285714D01*
X141452380Y-145333333D01*
X141500000Y-145428571D01*
X141500000Y-145952380D01*
X131362380Y-122063333D02*
X132076666Y-122063333D01*
X132219523Y-122110952D01*
X132314761Y-122206190D01*
X132362380Y-122349047D01*
X132362380Y-122444285D01*
X132362380Y-121063333D02*
X132362380Y-121634761D01*
X132362380Y-121349047D02*
X131362380Y-121349047D01*
X131505238Y-121444285D01*
X131600476Y-121539523D01*
X131648095Y-121634761D01*
%TO.C,U1*%
X85285714Y-92500000D02*
X85190476Y-92452380D01*
X85047619Y-92452380D01*
X84904761Y-92500000D01*
X84809523Y-92595238D01*
X84761904Y-92690476D01*
X84714285Y-92880952D01*
X84714285Y-93023809D01*
X84761904Y-93214285D01*
X84809523Y-93309523D01*
X84904761Y-93404761D01*
X85047619Y-93452380D01*
X85142857Y-93452380D01*
X85285714Y-93404761D01*
X85333333Y-93357142D01*
X85333333Y-93023809D01*
X85142857Y-93023809D01*
X86095238Y-92928571D02*
X86238095Y-92976190D01*
X86285714Y-93023809D01*
X86333333Y-93119047D01*
X86333333Y-93261904D01*
X86285714Y-93357142D01*
X86238095Y-93404761D01*
X86142857Y-93452380D01*
X85761904Y-93452380D01*
X85761904Y-92452380D01*
X86095238Y-92452380D01*
X86190476Y-92500000D01*
X86238095Y-92547619D01*
X86285714Y-92642857D01*
X86285714Y-92738095D01*
X86238095Y-92833333D01*
X86190476Y-92880952D01*
X86095238Y-92928571D01*
X85761904Y-92928571D01*
X86714285Y-93166666D02*
X87190476Y-93166666D01*
X86619047Y-93452380D02*
X86952380Y-92452380D01*
X87285714Y-93452380D01*
X87380952Y-93547619D02*
X88142857Y-93547619D01*
X88380952Y-93452380D02*
X88380952Y-92452380D01*
X88952380Y-93452380D01*
X88952380Y-92452380D01*
X89428571Y-93452380D02*
X89428571Y-92452380D01*
X89666666Y-92452380D01*
X89809523Y-92500000D01*
X89904761Y-92595238D01*
X89952380Y-92690476D01*
X90000000Y-92880952D01*
X90000000Y-93023809D01*
X89952380Y-93214285D01*
X89904761Y-93309523D01*
X89809523Y-93404761D01*
X89666666Y-93452380D01*
X89428571Y-93452380D01*
X90380952Y-93404761D02*
X90523809Y-93452380D01*
X90761904Y-93452380D01*
X90857142Y-93404761D01*
X90904761Y-93357142D01*
X90952380Y-93261904D01*
X90952380Y-93166666D01*
X90904761Y-93071428D01*
X90857142Y-93023809D01*
X90761904Y-92976190D01*
X90571428Y-92928571D01*
X90476190Y-92880952D01*
X90428571Y-92833333D01*
X90380952Y-92738095D01*
X90380952Y-92642857D01*
X90428571Y-92547619D01*
X90476190Y-92500000D01*
X90571428Y-92452380D01*
X90809523Y-92452380D01*
X90952380Y-92500000D01*
X91142857Y-93547619D02*
X91904761Y-93547619D01*
X92095238Y-93404761D02*
X92238095Y-93452380D01*
X92476190Y-93452380D01*
X92571428Y-93404761D01*
X92619047Y-93357142D01*
X92666666Y-93261904D01*
X92666666Y-93166666D01*
X92619047Y-93071428D01*
X92571428Y-93023809D01*
X92476190Y-92976190D01*
X92285714Y-92928571D01*
X92190476Y-92880952D01*
X92142857Y-92833333D01*
X92095238Y-92738095D01*
X92095238Y-92642857D01*
X92142857Y-92547619D01*
X92190476Y-92500000D01*
X92285714Y-92452380D01*
X92523809Y-92452380D01*
X92666666Y-92500000D01*
X93571428Y-93452380D02*
X93095238Y-93452380D01*
X93095238Y-92452380D01*
X94095238Y-92452380D02*
X94285714Y-92452380D01*
X94380952Y-92500000D01*
X94476190Y-92595238D01*
X94523809Y-92785714D01*
X94523809Y-93119047D01*
X94476190Y-93309523D01*
X94380952Y-93404761D01*
X94285714Y-93452380D01*
X94095238Y-93452380D01*
X94000000Y-93404761D01*
X93904761Y-93309523D01*
X93857142Y-93119047D01*
X93857142Y-92785714D01*
X93904761Y-92595238D01*
X94000000Y-92500000D01*
X94095238Y-92452380D01*
X94809523Y-92452380D02*
X95380952Y-92452380D01*
X95095238Y-93452380D02*
X95095238Y-92452380D01*
%TD*%
M02*
