M48
; DRILL file {KiCad (5.1.10)-1} date 11/02/21 23:27:37
; FORMAT={-:-/ absolute / inch / decimal}
; #@! TF.CreationDate,2021-11-02T23:27:37+01:00
; #@! TF.GenerationSoftware,Kicad,Pcbnew,(5.1.10)-1
; #@! TF.FileFunction,Plated,1,2,PTH
FMAT,2
INCH
T1C0.0157
T2C0.0394
T3C0.0591
T4C0.0787
%
G90
G05
T1
X5.2465Y-2.4035
X5.25Y-2.5
X5.2972Y-3.7028
X5.3Y-2.65
X5.3Y-2.75
X5.3Y-2.9
X5.3Y-3.0
X5.3Y-3.1
X5.3Y-3.35
X5.3Y-3.45
X5.3Y-3.6
X5.3Y-3.8
X5.3Y-3.95
X5.3Y-4.05
X5.35Y-3.2
T2
X6.05Y-2.45
X6.05Y-2.55
X6.05Y-2.65
X6.05Y-2.75
X6.05Y-2.85
X6.05Y-2.95
X6.05Y-3.05
X6.05Y-3.15
X6.05Y-3.25
X6.05Y-3.35
X6.05Y-3.45
X6.05Y-3.55
X6.05Y-3.65
X6.05Y-3.75
X6.05Y-3.85
X6.05Y-3.95
X6.15Y-2.45
X6.15Y-2.55
X6.15Y-2.65
X6.15Y-2.75
X6.15Y-2.85
X6.15Y-2.95
X6.15Y-3.05
X6.15Y-3.15
X6.15Y-3.25
X6.15Y-3.35
X6.15Y-3.45
X6.15Y-3.55
X6.15Y-3.65
X6.15Y-3.75
X6.15Y-3.85
X6.15Y-3.95
T4
X4.5681Y-2.6004
X4.5681Y-3.9193
T3
G00X4.1547Y-2.5315
M15
G01X4.1547Y-2.6693
M16
G05
G00X4.1547Y-3.8504
M15
G01X4.1547Y-3.9882
M16
G05
T0
M30
