%TF.GenerationSoftware,KiCad,Pcbnew,(5.1.10)-1*%
%TF.CreationDate,2021-11-02T23:54:37+01:00*%
%TF.ProjectId,Board0,426f6172-6430-42e6-9b69-6361645f7063,rev?*%
%TF.SameCoordinates,Original*%
%TF.FileFunction,Legend,Bot*%
%TF.FilePolarity,Positive*%
%FSLAX46Y46*%
G04 Gerber Fmt 4.6, Leading zero omitted, Abs format (unit mm)*
G04 Created by KiCad (PCBNEW (5.1.10)-1) date 2021-11-02 23:54:37*
%MOMM*%
%LPD*%
G01*
G04 APERTURE LIST*
%ADD10C,0.150000*%
G04 APERTURE END LIST*
D10*
X90452380Y-113952380D02*
X89452380Y-113952380D01*
X89452380Y-114190476D01*
X89500000Y-114333333D01*
X89595238Y-114428571D01*
X89690476Y-114476190D01*
X89880952Y-114523809D01*
X90023809Y-114523809D01*
X90214285Y-114476190D01*
X90309523Y-114428571D01*
X90404761Y-114333333D01*
X90452380Y-114190476D01*
X90452380Y-113952380D01*
X90404761Y-115333333D02*
X90452380Y-115238095D01*
X90452380Y-115047619D01*
X90404761Y-114952380D01*
X90309523Y-114904761D01*
X89928571Y-114904761D01*
X89833333Y-114952380D01*
X89785714Y-115047619D01*
X89785714Y-115238095D01*
X89833333Y-115333333D01*
X89928571Y-115380952D01*
X90023809Y-115380952D01*
X90119047Y-114904761D01*
X90404761Y-115761904D02*
X90452380Y-115857142D01*
X90452380Y-116047619D01*
X90404761Y-116142857D01*
X90309523Y-116190476D01*
X90261904Y-116190476D01*
X90166666Y-116142857D01*
X90119047Y-116047619D01*
X90119047Y-115904761D01*
X90071428Y-115809523D01*
X89976190Y-115761904D01*
X89928571Y-115761904D01*
X89833333Y-115809523D01*
X89785714Y-115904761D01*
X89785714Y-116047619D01*
X89833333Y-116142857D01*
X90452380Y-116619047D02*
X89785714Y-116619047D01*
X89452380Y-116619047D02*
X89500000Y-116571428D01*
X89547619Y-116619047D01*
X89500000Y-116666666D01*
X89452380Y-116619047D01*
X89547619Y-116619047D01*
X89785714Y-117523809D02*
X90595238Y-117523809D01*
X90690476Y-117476190D01*
X90738095Y-117428571D01*
X90785714Y-117333333D01*
X90785714Y-117190476D01*
X90738095Y-117095238D01*
X90404761Y-117523809D02*
X90452380Y-117428571D01*
X90452380Y-117238095D01*
X90404761Y-117142857D01*
X90357142Y-117095238D01*
X90261904Y-117047619D01*
X89976190Y-117047619D01*
X89880952Y-117095238D01*
X89833333Y-117142857D01*
X89785714Y-117238095D01*
X89785714Y-117428571D01*
X89833333Y-117523809D01*
X89785714Y-118000000D02*
X90452380Y-118000000D01*
X89880952Y-118000000D02*
X89833333Y-118047619D01*
X89785714Y-118142857D01*
X89785714Y-118285714D01*
X89833333Y-118380952D01*
X89928571Y-118428571D01*
X90452380Y-118428571D01*
X90404761Y-119285714D02*
X90452380Y-119190476D01*
X90452380Y-119000000D01*
X90404761Y-118904761D01*
X90309523Y-118857142D01*
X89928571Y-118857142D01*
X89833333Y-118904761D01*
X89785714Y-119000000D01*
X89785714Y-119190476D01*
X89833333Y-119285714D01*
X89928571Y-119333333D01*
X90023809Y-119333333D01*
X90119047Y-118857142D01*
X90452380Y-120190476D02*
X89452380Y-120190476D01*
X90404761Y-120190476D02*
X90452380Y-120095238D01*
X90452380Y-119904761D01*
X90404761Y-119809523D01*
X90357142Y-119761904D01*
X90261904Y-119714285D01*
X89976190Y-119714285D01*
X89880952Y-119761904D01*
X89833333Y-119809523D01*
X89785714Y-119904761D01*
X89785714Y-120095238D01*
X89833333Y-120190476D01*
X90452380Y-121428571D02*
X89452380Y-121428571D01*
X89833333Y-121428571D02*
X89785714Y-121523809D01*
X89785714Y-121714285D01*
X89833333Y-121809523D01*
X89880952Y-121857142D01*
X89976190Y-121904761D01*
X90261904Y-121904761D01*
X90357142Y-121857142D01*
X90404761Y-121809523D01*
X90452380Y-121714285D01*
X90452380Y-121523809D01*
X90404761Y-121428571D01*
X89785714Y-122238095D02*
X90452380Y-122476190D01*
X89785714Y-122714285D02*
X90452380Y-122476190D01*
X90690476Y-122380952D01*
X90738095Y-122333333D01*
X90785714Y-122238095D01*
X89785714Y-123761904D02*
X90452380Y-124000000D01*
X89785714Y-124238095D01*
X90452380Y-124619047D02*
X89785714Y-124619047D01*
X89452380Y-124619047D02*
X89500000Y-124571428D01*
X89547619Y-124619047D01*
X89500000Y-124666666D01*
X89452380Y-124619047D01*
X89547619Y-124619047D01*
X90357142Y-125666666D02*
X90404761Y-125619047D01*
X90452380Y-125476190D01*
X90452380Y-125380952D01*
X90404761Y-125238095D01*
X90309523Y-125142857D01*
X90214285Y-125095238D01*
X90023809Y-125047619D01*
X89880952Y-125047619D01*
X89690476Y-125095238D01*
X89595238Y-125142857D01*
X89500000Y-125238095D01*
X89452380Y-125380952D01*
X89452380Y-125476190D01*
X89500000Y-125619047D01*
X89547619Y-125666666D01*
X89785714Y-126095238D02*
X90785714Y-126095238D01*
X89833333Y-126095238D02*
X89785714Y-126190476D01*
X89785714Y-126380952D01*
X89833333Y-126476190D01*
X89880952Y-126523809D01*
X89976190Y-126571428D01*
X90261904Y-126571428D01*
X90357142Y-126523809D01*
X90404761Y-126476190D01*
X90452380Y-126380952D01*
X90452380Y-126190476D01*
X90404761Y-126095238D01*
X89785714Y-127000000D02*
X90785714Y-127000000D01*
X89833333Y-127000000D02*
X89785714Y-127095238D01*
X89785714Y-127285714D01*
X89833333Y-127380952D01*
X89880952Y-127428571D01*
X89976190Y-127476190D01*
X90261904Y-127476190D01*
X90357142Y-127428571D01*
X90404761Y-127380952D01*
X90452380Y-127285714D01*
X90452380Y-127095238D01*
X90404761Y-127000000D01*
X90452380Y-127904761D02*
X89452380Y-127904761D01*
X89452380Y-128142857D01*
X89500000Y-128285714D01*
X89595238Y-128380952D01*
X89690476Y-128428571D01*
X89880952Y-128476190D01*
X90023809Y-128476190D01*
X90214285Y-128428571D01*
X90309523Y-128380952D01*
X90404761Y-128285714D01*
X90452380Y-128142857D01*
X90452380Y-127904761D01*
X90404761Y-129285714D02*
X90452380Y-129190476D01*
X90452380Y-129000000D01*
X90404761Y-128904761D01*
X90309523Y-128857142D01*
X89928571Y-128857142D01*
X89833333Y-128904761D01*
X89785714Y-129000000D01*
X89785714Y-129190476D01*
X89833333Y-129285714D01*
X89928571Y-129333333D01*
X90023809Y-129333333D01*
X90119047Y-128857142D01*
X89785714Y-129666666D02*
X90452380Y-129904761D01*
X89785714Y-130142857D01*
M02*
