%TF.GenerationSoftware,KiCad,Pcbnew,(5.1.10)-1*%
%TF.CreationDate,2021-11-02T23:54:37+01:00*%
%TF.ProjectId,Board0,426f6172-6430-42e6-9b69-6361645f7063,rev?*%
%TF.SameCoordinates,Original*%
%TF.FileFunction,Copper,L1,Top*%
%TF.FilePolarity,Positive*%
%FSLAX46Y46*%
G04 Gerber Fmt 4.6, Leading zero omitted, Abs format (unit mm)*
G04 Created by KiCad (PCBNEW (5.1.10)-1) date 2021-11-02 23:54:37*
%MOMM*%
%LPD*%
G01*
G04 APERTURE LIST*
%TA.AperFunction,ComponentPad*%
%ADD10O,1.700000X1.700000*%
%TD*%
%TA.AperFunction,ComponentPad*%
%ADD11R,1.700000X1.700000*%
%TD*%
%TA.AperFunction,ComponentPad*%
%ADD12C,2.100000*%
%TD*%
%TA.AperFunction,SMDPad,CuDef*%
%ADD13R,2.000000X1.000000*%
%TD*%
%TA.AperFunction,ViaPad*%
%ADD14C,0.800000*%
%TD*%
%TA.AperFunction,Conductor*%
%ADD15C,0.250000*%
%TD*%
G04 APERTURE END LIST*
D10*
%TO.P,J1,32*%
%TO.N,Net-(J1-Pad32)*%
X133180000Y-140780000D03*
%TO.P,J1,31*%
%TO.N,Net-(J1-Pad31)*%
X130640000Y-140780000D03*
%TO.P,J1,30*%
%TO.N,Net-(J1-Pad30)*%
X133180000Y-138240000D03*
%TO.P,J1,29*%
%TO.N,Net-(J1-Pad29)*%
X130640000Y-138240000D03*
%TO.P,J1,28*%
%TO.N,Net-(J1-Pad28)*%
X133180000Y-135700000D03*
%TO.P,J1,27*%
%TO.N,Net-(J1-Pad27)*%
X130640000Y-135700000D03*
%TO.P,J1,26*%
%TO.N,Net-(J1-Pad26)*%
X133180000Y-133160000D03*
%TO.P,J1,25*%
%TO.N,Net-(J1-Pad25)*%
X130640000Y-133160000D03*
%TO.P,J1,24*%
%TO.N,Net-(J1-Pad24)*%
X133180000Y-130620000D03*
%TO.P,J1,23*%
%TO.N,Net-(J1-Pad23)*%
X130640000Y-130620000D03*
%TO.P,J1,22*%
%TO.N,Net-(J1-Pad22)*%
X133180000Y-128080000D03*
%TO.P,J1,21*%
%TO.N,Net-(J1-Pad21)*%
X130640000Y-128080000D03*
%TO.P,J1,20*%
%TO.N,Net-(J1-Pad20)*%
X133180000Y-125540000D03*
%TO.P,J1,19*%
%TO.N,Net-(J1-Pad19)*%
X130640000Y-125540000D03*
%TO.P,J1,18*%
%TO.N,Net-(J1-Pad18)*%
X133180000Y-123000000D03*
%TO.P,J1,17*%
%TO.N,Net-(J1-Pad17)*%
X130640000Y-123000000D03*
%TO.P,J1,16*%
%TO.N,Net-(J1-Pad16)*%
X133180000Y-120460000D03*
%TO.P,J1,15*%
%TO.N,Net-(J1-Pad15)*%
X130640000Y-120460000D03*
%TO.P,J1,14*%
%TO.N,Net-(J1-Pad14)*%
X133180000Y-117920000D03*
%TO.P,J1,13*%
%TO.N,Net-(J1-Pad13)*%
X130640000Y-117920000D03*
%TO.P,J1,12*%
%TO.N,Net-(J1-Pad12)*%
X133180000Y-115380000D03*
%TO.P,J1,11*%
%TO.N,Net-(J1-Pad11)*%
X130640000Y-115380000D03*
%TO.P,J1,10*%
%TO.N,Net-(J1-Pad10)*%
X133180000Y-112840000D03*
%TO.P,J1,9*%
%TO.N,Net-(J1-Pad9)*%
X130640000Y-112840000D03*
%TO.P,J1,8*%
%TO.N,Net-(J1-Pad8)*%
X133180000Y-110300000D03*
%TO.P,J1,7*%
%TO.N,Net-(J1-Pad7)*%
X130640000Y-110300000D03*
%TO.P,J1,6*%
%TO.N,Net-(J1-Pad6)*%
X133180000Y-107760000D03*
%TO.P,J1,5*%
%TO.N,Net-(J1-Pad5)*%
X130640000Y-107760000D03*
%TO.P,J1,4*%
%TO.N,Net-(J1-Pad4)*%
X133180000Y-105220000D03*
%TO.P,J1,3*%
%TO.N,Net-(J1-Pad3)*%
X130640000Y-105220000D03*
%TO.P,J1,2*%
%TO.N,Net-(J1-Pad2)*%
X133180000Y-102680000D03*
D11*
%TO.P,J1,1*%
%TO.N,Net-(J1-Pad1)*%
X130640000Y-102680000D03*
%TD*%
%TO.P,U1,*%
%TO.N,*%
%TA.AperFunction,ComponentPad*%
G36*
G01*
X81500000Y-142250000D02*
X81500000Y-137750000D01*
G75*
G02*
X82000000Y-137250000I500000J0D01*
G01*
X83000000Y-137250000D01*
G75*
G02*
X83500000Y-137750000I0J-500000D01*
G01*
X83500000Y-142250000D01*
G75*
G02*
X83000000Y-142750000I-500000J0D01*
G01*
X82000000Y-142750000D01*
G75*
G02*
X81500000Y-142250000I0J500000D01*
G01*
G37*
%TD.AperFunction*%
%TA.AperFunction,ComponentPad*%
G36*
G01*
X81500000Y-108750000D02*
X81500000Y-104250000D01*
G75*
G02*
X82000000Y-103750000I500000J0D01*
G01*
X83000000Y-103750000D01*
G75*
G02*
X83500000Y-104250000I0J-500000D01*
G01*
X83500000Y-108750000D01*
G75*
G02*
X83000000Y-109250000I-500000J0D01*
G01*
X82000000Y-109250000D01*
G75*
G02*
X81500000Y-108750000I0J500000D01*
G01*
G37*
%TD.AperFunction*%
D12*
X93000000Y-140000000D03*
X93000000Y-106500000D03*
D13*
%TO.P,U1,31*%
%TO.N,Net-(J1-Pad32)*%
X100000000Y-146500000D03*
%TO.P,U1,30*%
%TO.N,Net-(J1-Pad31)*%
X100000000Y-145000000D03*
%TO.P,U1,29*%
%TO.N,Net-(J1-Pad30)*%
X100000000Y-143500000D03*
%TO.P,U1,28*%
%TO.N,Net-(J1-Pad29)*%
X100000000Y-142000000D03*
%TO.P,U1,27*%
%TO.N,Net-(J1-Pad28)*%
X100000000Y-140500000D03*
%TO.P,U1,26*%
%TO.N,Net-(J1-Pad27)*%
X100000000Y-139000000D03*
%TO.P,U1,25*%
%TO.N,Net-(J1-Pad26)*%
X100000000Y-137500000D03*
%TO.P,U1,24*%
%TO.N,Net-(J1-Pad25)*%
X100000000Y-136000000D03*
%TO.P,U1,23*%
%TO.N,Net-(J1-Pad24)*%
X100000000Y-134500000D03*
%TO.P,U1,22*%
%TO.N,Net-(J1-Pad23)*%
X100000000Y-133000000D03*
%TO.P,U1,21*%
%TO.N,Net-(J1-Pad22)*%
X100000000Y-131500000D03*
%TO.P,U1,20*%
%TO.N,Net-(J1-Pad21)*%
X100000000Y-130000000D03*
%TO.P,U1,19*%
%TO.N,Net-(J1-Pad20)*%
X100000000Y-128500000D03*
%TO.P,U1,18*%
%TO.N,Net-(J1-Pad19)*%
X100000000Y-127000000D03*
%TO.P,U1,17*%
%TO.N,Net-(J1-Pad18)*%
X100000000Y-125500000D03*
%TO.P,U1,16*%
%TO.N,Net-(J1-Pad17)*%
X100000000Y-124000000D03*
%TO.P,U1,15*%
%TO.N,Net-(J1-Pad16)*%
X100000000Y-122500000D03*
%TO.P,U1,14*%
%TO.N,Net-(J1-Pad15)*%
X100000000Y-121000000D03*
%TO.P,U1,13*%
%TO.N,Net-(J1-Pad14)*%
X100000000Y-119500000D03*
%TO.P,U1,12*%
%TO.N,Net-(J1-Pad13)*%
X100000000Y-118000000D03*
%TO.P,U1,11*%
%TO.N,Net-(J1-Pad12)*%
X100000000Y-116500000D03*
%TO.P,U1,10*%
%TO.N,Net-(J1-Pad11)*%
X100000000Y-115000000D03*
%TO.P,U1,9*%
%TO.N,Net-(J1-Pad10)*%
X100000000Y-113500000D03*
%TO.P,U1,8*%
%TO.N,Net-(J1-Pad9)*%
X100000000Y-112000000D03*
%TO.P,U1,7*%
%TO.N,Net-(J1-Pad8)*%
X100000000Y-110500000D03*
%TO.P,U1,6*%
%TO.N,Net-(J1-Pad7)*%
X100000000Y-109000000D03*
%TO.P,U1,5*%
%TO.N,Net-(J1-Pad6)*%
X100000000Y-107500000D03*
%TO.P,U1,4*%
%TO.N,Net-(J1-Pad5)*%
X100000000Y-106000000D03*
%TO.P,U1,3*%
%TO.N,Net-(J1-Pad4)*%
X100000000Y-104500000D03*
%TO.P,U1,2*%
%TO.N,Net-(J1-Pad3)*%
X100000000Y-103000000D03*
%TO.P,U1,1*%
%TO.N,Net-(J1-Pad2)*%
X100000000Y-101500000D03*
%TO.P,U1,0*%
%TO.N,Net-(J1-Pad1)*%
X100000000Y-100000000D03*
%TD*%
D14*
%TO.N,Net-(J1-Pad30)*%
X111590000Y-143320000D03*
%TO.N,Net-(J1-Pad28)*%
X111590000Y-140780000D03*
%TO.N,Net-(J1-Pad26)*%
X111590000Y-136970000D03*
%TO.N,Net-(J1-Pad24)*%
X111520000Y-134500000D03*
%TO.N,Net-(J1-Pad22)*%
X111590000Y-131890000D03*
%TO.N,Net-(J1-Pad20)*%
X111590000Y-128080000D03*
%TO.N,Net-(J1-Pad18)*%
X111590000Y-125540000D03*
%TO.N,Net-(J1-Pad16)*%
X112860000Y-121730000D03*
%TO.N,Net-(J1-Pad14)*%
X111590000Y-119190000D03*
%TO.N,Net-(J1-Pad12)*%
X111590000Y-116650000D03*
%TO.N,Net-(J1-Pad10)*%
X111590000Y-114110000D03*
%TO.N,Net-(J1-Pad8)*%
X111590000Y-110300000D03*
%TO.N,Net-(J1-Pad6)*%
X111590000Y-107760000D03*
%TO.N,Net-(J1-Pad4)*%
X110320000Y-103950000D03*
%TO.N,Net-(J1-Pad2)*%
X110230000Y-101500000D03*
%TD*%
D15*
%TO.N,Net-(J1-Pad1)*%
X127960000Y-100000000D02*
X130640000Y-102680000D01*
X100000000Y-100000000D02*
X127960000Y-100000000D01*
%TO.N,Net-(J1-Pad32)*%
X126659002Y-146500000D02*
X129839002Y-143320000D01*
X100000000Y-146500000D02*
X126659002Y-146500000D01*
X130640000Y-143320000D02*
X133180000Y-140780000D01*
X129839002Y-143320000D02*
X130640000Y-143320000D01*
%TO.N,Net-(J1-Pad31)*%
X126420000Y-145000000D02*
X130640000Y-140780000D01*
X100000000Y-145000000D02*
X126420000Y-145000000D01*
%TO.N,Net-(J1-Pad30)*%
X100000000Y-143500000D02*
X111410000Y-143500000D01*
X111410000Y-143500000D02*
X111590000Y-143320000D01*
%TO.N,Net-(J1-Pad29)*%
X126880000Y-142000000D02*
X130640000Y-138240000D01*
X100000000Y-142000000D02*
X126880000Y-142000000D01*
%TO.N,Net-(J1-Pad28)*%
X100000000Y-140500000D02*
X111310000Y-140500000D01*
X111310000Y-140500000D02*
X111590000Y-140780000D01*
%TO.N,Net-(J1-Pad27)*%
X127340000Y-139000000D02*
X130640000Y-135700000D01*
X100000000Y-139000000D02*
X127340000Y-139000000D01*
%TO.N,Net-(J1-Pad26)*%
X100000000Y-137500000D02*
X111060000Y-137500000D01*
X111060000Y-137500000D02*
X111590000Y-136970000D01*
%TO.N,Net-(J1-Pad25)*%
X127800000Y-136000000D02*
X130640000Y-133160000D01*
X100000000Y-136000000D02*
X127800000Y-136000000D01*
%TO.N,Net-(J1-Pad24)*%
X100000000Y-134500000D02*
X111520000Y-134500000D01*
%TO.N,Net-(J1-Pad23)*%
X128260000Y-133000000D02*
X130640000Y-130620000D01*
X100000000Y-133000000D02*
X128260000Y-133000000D01*
%TO.N,Net-(J1-Pad22)*%
X100000000Y-131500000D02*
X111200000Y-131500000D01*
X111200000Y-131500000D02*
X111590000Y-131890000D01*
%TO.N,Net-(J1-Pad21)*%
X128720000Y-130000000D02*
X130640000Y-128080000D01*
X100000000Y-130000000D02*
X128720000Y-130000000D01*
%TO.N,Net-(J1-Pad20)*%
X100000000Y-128500000D02*
X111170000Y-128500000D01*
X111170000Y-128500000D02*
X111590000Y-128080000D01*
%TO.N,Net-(J1-Pad19)*%
X129180000Y-127000000D02*
X130640000Y-125540000D01*
X100000000Y-127000000D02*
X129180000Y-127000000D01*
%TO.N,Net-(J1-Pad18)*%
X100000000Y-125500000D02*
X111550000Y-125500000D01*
X111550000Y-125500000D02*
X111590000Y-125540000D01*
%TO.N,Net-(J1-Pad17)*%
X129640000Y-124000000D02*
X130640000Y-123000000D01*
X100000000Y-124000000D02*
X129640000Y-124000000D01*
%TO.N,Net-(J1-Pad16)*%
X100000000Y-122500000D02*
X111090000Y-122500000D01*
X111090000Y-122500000D02*
X112090000Y-122500000D01*
X112090000Y-122500000D02*
X112860000Y-121730000D01*
%TO.N,Net-(J1-Pad15)*%
X130100000Y-121000000D02*
X130640000Y-120460000D01*
X100000000Y-121000000D02*
X130100000Y-121000000D01*
%TO.N,Net-(J1-Pad14)*%
X100000000Y-119500000D02*
X111280000Y-119500000D01*
X111280000Y-119500000D02*
X111590000Y-119190000D01*
%TO.N,Net-(J1-Pad13)*%
X130560000Y-118000000D02*
X130640000Y-117920000D01*
X100000000Y-118000000D02*
X130560000Y-118000000D01*
%TO.N,Net-(J1-Pad12)*%
X100000000Y-116500000D02*
X111440000Y-116500000D01*
X111440000Y-116500000D02*
X111590000Y-116650000D01*
%TO.N,Net-(J1-Pad11)*%
X130260000Y-115000000D02*
X130640000Y-115380000D01*
X100000000Y-115000000D02*
X130260000Y-115000000D01*
%TO.N,Net-(J1-Pad10)*%
X100000000Y-113500000D02*
X110980000Y-113500000D01*
X110980000Y-113500000D02*
X111590000Y-114110000D01*
%TO.N,Net-(J1-Pad9)*%
X129800000Y-112000000D02*
X100000000Y-112000000D01*
X130640000Y-112840000D02*
X129800000Y-112000000D01*
%TO.N,Net-(J1-Pad8)*%
X100000000Y-110500000D02*
X111390000Y-110500000D01*
X111390000Y-110500000D02*
X111590000Y-110300000D01*
%TO.N,Net-(J1-Pad7)*%
X129340000Y-109000000D02*
X130640000Y-110300000D01*
X100000000Y-109000000D02*
X129340000Y-109000000D01*
%TO.N,Net-(J1-Pad6)*%
X111330000Y-107500000D02*
X111590000Y-107760000D01*
X100000000Y-107500000D02*
X111330000Y-107500000D01*
%TO.N,Net-(J1-Pad5)*%
X128880000Y-106000000D02*
X130640000Y-107760000D01*
X100000000Y-106000000D02*
X128880000Y-106000000D01*
%TO.N,Net-(J1-Pad4)*%
X100000000Y-104500000D02*
X108500000Y-104500000D01*
X108500000Y-104500000D02*
X109770000Y-104500000D01*
X109770000Y-104500000D02*
X110320000Y-103950000D01*
%TO.N,Net-(J1-Pad3)*%
X128420000Y-103000000D02*
X130640000Y-105220000D01*
X100000000Y-103000000D02*
X128420000Y-103000000D01*
%TO.N,Net-(J1-Pad2)*%
X100000000Y-101500000D02*
X110230000Y-101500000D01*
X110230000Y-101500000D02*
X110230000Y-101500000D01*
%TD*%
M02*
